<svg width="24" height="24" viewBox="0 0 24 24" fill="none" xmlns="http://www.w3.org/2000/svg">
<rect width="24" height="24" fill="#F5F5F5"/>
<g id="Home Page - Desktop">
<rect width="1920" height="8969" transform="translate(-1655 -8655)" fill="#F7F7F8"/>
<g id="Footer Section">
<rect width="1920" height="472" transform="translate(-1655 -158)" fill="white"/>
<g id="Container">
<g id="Sub Container">
<g id="Container_2">
<g id="Buttons Container">
<g id="Button">
<rect x="-13.5" y="-13.5" width="51" height="51" rx="7.5" fill="#F7F7F8"/>
<rect x="-13.5" y="-13.5" width="51" height="51" rx="7.5" stroke="#F1F1F3"/>
<g id="Icon" clip-path="url(#clip0_0_1)">
<path id="Vector" d="M22.2234 0H1.77187C0.792187 0 0 0.773438 0 1.72969V22.2656C0 23.2219 0.792187 24 1.77187 24H22.2234C23.2031 24 24 23.2219 24 22.2703V1.72969C24 0.773438 23.2031 0 22.2234 0ZM7.12031 20.4516H3.55781V8.99531H7.12031V20.4516ZM5.33906 7.43438C4.19531 7.43438 3.27188 6.51094 3.27188 5.37187C3.27188 4.23281 4.19531 3.30937 5.33906 3.30937C6.47813 3.30937 7.40156 4.23281 7.40156 5.37187C7.40156 6.50625 6.47813 7.43438 5.33906 7.43438ZM20.4516 20.4516H16.8937V14.8828C16.8937 13.5562 16.8703 11.8453 15.0422 11.8453C13.1906 11.8453 12.9094 13.2937 12.9094 14.7891V20.4516H9.35625V8.99531H12.7687V10.5609H12.8156C13.2891 9.66094 14.4516 8.70938 16.1813 8.70938C19.7859 8.70938 20.4516 11.0813 20.4516 14.1656V20.4516Z" fill="#333333"/>
</g>
</g>
</g>
</g>
</g>
</g>
</g>
</g>
<defs>
<clipPath id="clip0_0_1">
<rect width="24" height="24" fill="white"/>
</clipPath>
</defs>
</svg>
